<svg width="24" height="24" viewBox="0 0 24 24" fill="none" xmlns="http://www.w3.org/2000/svg">
<path d="M18.9963 6.19861C18.8025 8.65803 17.9626 14.6354 17.5362 17.3905C17.3553 18.558 16.9935 18.9471 16.6576 18.9938C15.9082 19.0717 15.3397 18.4023 14.6161 17.8264C13.4791 16.9236 12.833 16.3632 11.7347 15.4915C10.4556 14.4797 11.2825 13.9193 12.019 13.0165C12.2128 12.783 15.5206 9.15614 15.5852 8.82926C15.5941 8.77975 15.5929 8.72835 15.5817 8.67952C15.5704 8.63069 15.5494 8.58591 15.5206 8.54907C15.443 8.47124 15.3397 8.50237 15.2492 8.51794C15.1329 8.54907 13.324 9.9967 9.7966 12.8608C9.27977 13.2811 8.81461 13.499 8.40114 13.4835C7.93599 13.4679 7.05737 13.1722 6.39841 12.9075C5.58439 12.5962 4.95127 12.425 5.00295 11.8802C5.02879 11.6 5.35182 11.3198 5.9591 11.0241C9.732 9.04718 12.2386 7.73964 13.492 7.117C17.084 5.31135 17.8205 5.00003 18.3115 5.00003C18.4148 5.00003 18.6603 5.03116 18.8154 5.18682C18.9446 5.31135 18.9833 5.48258 18.9963 5.6071C18.9833 5.7005 19.0092 5.98069 18.9963 6.19861Z" fill="#828282"/>
</svg>
