<svg width="65" height="64" viewBox="0 0 65 64" fill="none" xmlns="http://www.w3.org/2000/svg">
<path fill-rule="evenodd" clip-rule="evenodd" d="M17.6758 40.9473H28.7895V51.2949H17.6758V40.9473Z" fill="#5900E6"/>
<path fill-rule="evenodd" clip-rule="evenodd" d="M49.5 23.3333H48.7667C48.4625 21.8798 47.2335 20.8028 45.7527 20.692C45.7592 20.3374 45.6985 20.2177 45.2252 19.2848C45.1175 19.0725 44.9885 18.8182 44.834 18.5093V15.4907L45.6147 13.9293C45.8213 13.5159 45.799 13.025 45.5559 12.632C45.3128 12.2389 44.8835 11.9998 44.4213 12H39.2453C38.7821 11.9993 38.3518 12.2391 38.1086 12.6333C37.8654 13.0275 37.8442 13.5197 38.0527 13.9333L38.5073 14.8427C33.9942 15.6772 30.6812 16.2948 28.2333 16.7511C21.9172 17.9285 21.36 18.0324 20.8058 18.0185C20.7522 18.0172 20.6986 18.0147 20.6399 18.012C20.5191 18.0065 20.3764 18 20.1667 18C19.7985 18 19.5 18.2985 19.5 18.6667C19.5 19.0349 19.7985 19.3333 20.1667 19.3333H20.8333V20.6667H18.8333C16.9933 20.6689 15.5022 22.16 15.5 24V33.3333C15.5022 35.1734 16.9933 36.6645 18.8333 36.6667H19.5V40H18.1667C17.4303 40 16.8333 40.597 16.8333 41.3333H14.8333C14.097 41.3333 13.5 41.9303 13.5 42.6667V44.6667C13.5022 46.5067 14.9933 47.9978 16.8333 48V50.6667C16.8333 51.403 17.4303 52 18.1667 52H28.1667C28.903 52 29.5 51.403 29.5 50.6667V48H45.5C47.34 47.9978 48.8311 46.5067 48.8333 44.6667V29.3333H49.5C50.6046 29.3333 51.5 28.4379 51.5 27.3333V25.3333C51.5 24.2288 50.6046 23.3333 49.5 23.3333ZM47.5 24V41.3333H38.8333V33.3333C38.8311 31.4933 37.34 30.0022 35.5 30H30.1667C28.3266 30.0022 26.8355 31.4933 26.8333 33.3333C26.8333 34.4379 25.9379 35.3333 24.8333 35.3333H22.1667V22H45.5C46.6046 22 47.5 22.8954 47.5 24ZM24.1667 40H28.1667C28.903 40 29.5 40.597 29.5 41.3333H37.5V33.3333C37.5 32.2288 36.6046 31.3333 35.5 31.3333H30.1667C29.0621 31.3333 28.1667 32.2288 28.1667 33.3333C28.1667 35.1743 26.6743 36.6667 24.8333 36.6667H24.1667V40ZM22.8333 19.3333C23.0707 19.3311 23.2884 19.2008 23.4027 18.9927L38.8333 16.1333V18.5093C38.674 18.828 38.5421 19.0879 38.4329 19.3031C37.9735 20.2085 37.9173 20.3192 37.9173 20.6667H22.1667V19.3333H22.8333ZM39.912 19.3333L39.2453 20.6667H44.4213L43.7547 19.3333H39.912ZM43.5 18H40.1667V16H43.5V18ZM43.7547 14.6667L44.4213 13.3333H39.2453L39.912 14.6667H43.7547ZM16.8333 33.3333V24C16.8333 22.8954 17.7288 22 18.8333 22H20.8333V35.3333H18.8333C17.7288 35.3333 16.8333 34.4379 16.8333 33.3333ZM22.8333 36.6667H20.8333V40H22.8333V36.6667ZM14.8333 44.6667V42.6667H16.8333V46.6667C15.7288 46.6667 14.8333 45.7712 14.8333 44.6667ZM22.8333 50.6667H28.1667V41.3333H22.8333V42.6667C22.8333 43.0349 22.5349 43.3333 22.1667 43.3333C21.7985 43.3333 21.5 43.0349 21.5 42.6667V41.3333H18.1667V50.6667H21.5V49.3333C21.5 48.9651 21.7985 48.6667 22.1667 48.6667C22.5349 48.6667 22.8333 48.9651 22.8333 49.3333V50.6667ZM29.5 42.6667H47.5V44.6667C47.5 45.7712 46.6046 46.6667 45.5 46.6667H29.5V42.6667ZM49.5 28C49.8682 28 50.1667 27.7015 50.1667 27.3333V25.3333C50.1667 24.9651 49.8682 24.6667 49.5 24.6667H48.8333V28H49.5Z" fill="#242424"/>
<path fill-rule="evenodd" clip-rule="evenodd" d="M40.166 33C40.166 31.3431 41.5092 30 43.166 30C44.8221 30.0018 46.1642 31.3439 46.166 33C46.166 34.6569 44.8229 36 43.166 36C41.5092 36 40.166 34.6569 40.166 33ZM41.4993 33C41.4993 33.9205 42.2455 34.6667 43.166 34.6667C44.0865 34.6667 44.8327 33.9205 44.8327 33C44.8327 32.0795 44.0865 31.3333 43.166 31.3333C42.2455 31.3333 41.4993 32.0795 41.4993 33Z" fill="#242424"/>
<path d="M22.1667 44.6665C21.7985 44.6665 21.5 44.965 21.5 45.3332V46.6665C21.5 47.0347 21.7985 47.3332 22.1667 47.3332C22.5349 47.3332 22.8333 47.0347 22.8333 46.6665V45.3332C22.8333 44.965 22.5349 44.6665 22.1667 44.6665Z" fill="#242424"/>
</svg>
