<svg width="65" height="64" viewBox="0 0 65 64" fill="none" xmlns="http://www.w3.org/2000/svg">
<path fill-rule="evenodd" clip-rule="evenodd" d="M50.732 20.8674L34.469 13.3198C33.5353 12.8934 32.4647 12.8934 31.531 13.3198L15.268 20.8674C14.2627 20.9624 13.4956 21.816 13.5 22.8346V50.3756C13.5 51.462 14.3731 52.3428 15.45 52.3428H50.55C51.627 52.3428 52.5 51.462 52.5 50.3756V22.8346C52.5044 21.816 51.7373 20.9624 50.732 20.8674ZM32.077 14.5133C32.6635 14.2442 33.3366 14.2442 33.923 14.5133L47.573 20.8674H18.414L32.077 14.5133ZM50.55 51.0313C50.909 51.0313 51.2 50.7377 51.2 50.3756V22.8346C51.2 22.4724 50.909 22.1788 50.55 22.1788H15.45C15.091 22.1788 14.8 22.4724 14.8 22.8346V50.3756C14.8 50.7377 15.091 51.0313 15.45 51.0313H50.55Z" fill="#242424"/>
<path fill-rule="evenodd" clip-rule="evenodd" d="M38.2008 40.8909L38.7236 38.7289L40.5173 38.1518L42.1008 36.9917L44.0508 38.3861L45.6987 38.9413L46.2522 40.8909L46.7972 42.1852L45.6987 44.188L45.0855 45.5003L42.499 46.2084L41.4508 46.6643L39.6493 45.3035L38.4484 44.4774L37.584 42.1852L38.2008 40.8909Z" fill="#5900E6"/>
<path fill-rule="evenodd" clip-rule="evenodd" d="M16.7496 23.4902H49.2496C49.6086 23.4902 49.8996 23.7838 49.8996 24.146V49.064C49.8996 49.4262 49.6086 49.7197 49.2496 49.7197H16.7496C16.3906 49.7197 16.0996 49.4262 16.0996 49.064V24.146C16.0996 23.7838 16.3906 23.4902 16.7496 23.4902ZM17.3996 48.4083H48.5996V24.8017H17.3996V48.4083Z" fill="#242424"/>
<path fill-rule="evenodd" clip-rule="evenodd" d="M39.7662 37.5884C40.1234 37.5672 40.4627 37.4238 40.7282 37.1819C41.8007 36.4081 42.4052 36.4081 43.4712 37.1819C43.7367 37.4238 44.0761 37.5672 44.4332 37.5884C45.7202 37.8048 46.1167 38.218 46.3247 39.4966C46.3463 39.8568 46.4884 40.199 46.7277 40.4671C47.5012 41.5557 47.4882 42.1589 46.7277 43.2343C46.4879 43.5022 46.3458 43.8445 46.3247 44.2048C46.1102 45.4966 45.7332 45.8966 44.4332 46.113C44.0761 46.1342 43.7367 46.2776 43.4712 46.5196C42.3987 47.2934 41.7942 47.2934 40.7282 46.5196C40.4627 46.2776 40.1234 46.1342 39.7662 46.113C38.4792 45.8966 38.0827 45.4835 37.8747 44.2048C37.8532 43.8446 37.7111 43.5025 37.4717 43.2343C36.6982 42.1458 36.7112 41.5425 37.4717 40.4671C37.7116 40.1993 37.8537 39.857 37.8747 39.4966C38.0892 38.2048 38.4662 37.8048 39.7662 37.5884ZM44.2197 38.8777C43.9499 38.8288 43.644 38.7733 43.3997 38.6704C43.1493 38.5657 42.9103 38.3928 42.6977 38.2391C42.4578 38.0656 42.2514 37.9163 42.0997 37.9163C41.949 37.9163 41.7458 38.0639 41.5074 38.2371C41.2936 38.3925 41.0514 38.5684 40.7932 38.677C40.5161 38.7935 40.1921 38.8559 39.9172 38.9089C39.6506 38.9602 39.4302 39.0027 39.3437 39.077C39.2526 39.1553 39.2088 39.4036 39.1567 39.6986C39.1086 39.9714 39.0534 40.2841 38.9472 40.5393C38.8443 40.7866 38.6752 41.0254 38.5238 41.2392C38.3501 41.4844 38.1997 41.6966 38.1997 41.8507C38.1997 42.0028 38.3461 42.2078 38.5177 42.4483C38.6717 42.664 38.8462 42.9083 38.9537 43.1688C39.0692 43.4484 39.1311 43.7752 39.1836 44.0525C39.2345 44.3215 39.2766 44.5439 39.3502 44.6311C39.4281 44.7233 39.6736 44.7675 39.9662 44.8202C40.2353 44.8686 40.5444 44.9243 40.7997 45.0311C41.0502 45.1358 41.2892 45.3086 41.5018 45.4624C41.7417 45.6359 41.9481 45.7852 42.0997 45.7852C42.2505 45.7852 42.4537 45.6376 42.692 45.4644C42.9059 45.309 43.1481 45.133 43.4062 45.0245C43.6834 44.908 44.0074 44.8456 44.2823 44.7926C44.5489 44.7412 44.7693 44.6988 44.8557 44.6245C44.9469 44.5462 44.9907 44.2978 45.0428 44.0028C45.0909 43.7301 45.1461 43.4174 45.2522 43.1622C45.3552 42.9149 45.5243 42.6761 45.6757 42.4623C45.8494 42.2171 45.9997 42.0049 45.9997 41.8507C45.9997 41.6986 45.8534 41.4937 45.6817 41.2532C45.5277 41.0375 45.3533 40.7932 45.2457 40.5327C45.1303 40.2531 45.0684 39.9263 45.0159 39.649C44.965 39.3799 44.9229 39.1576 44.8492 39.0704C44.7708 38.9776 44.5173 38.9316 44.2197 38.8777Z" fill="#242424"/>
<path d="M24.5504 28.7363H41.4504C41.8094 28.7363 42.1004 28.4427 42.1004 28.0805C42.1004 27.7184 41.8094 27.4248 41.4504 27.4248H24.5504C24.1914 27.4248 23.9004 27.7184 23.9004 28.0805C23.9004 28.4427 24.1914 28.7363 24.5504 28.7363Z" fill="#242424"/>
<path d="M36.2496 31.3593C36.6086 31.3593 36.8996 31.0657 36.8996 30.7036C36.8996 30.3414 36.6086 30.0479 36.2496 30.0479H29.7496C29.3906 30.0479 29.0996 30.3414 29.0996 30.7036C29.0996 31.0657 29.3906 31.3593 29.7496 31.3593H36.2496Z" fill="#242424"/>
<path d="M25.8496 33.3261C25.8496 33.6883 26.1406 33.9819 26.4996 33.9819H39.4996C39.8586 33.9819 40.1496 33.6883 40.1496 33.3261C40.1496 32.964 39.8586 32.6704 39.4996 32.6704H26.4996C26.1406 32.6704 25.8496 32.964 25.8496 33.3261Z" fill="#242424"/>
<path fill-rule="evenodd" clip-rule="evenodd" d="M42.1004 43.8182C41.0234 43.8182 40.1504 42.9375 40.1504 41.851C40.1504 40.7645 41.0234 39.8838 42.1004 39.8838C43.1773 39.8838 44.0504 40.7645 44.0504 41.851C44.0504 42.9375 43.1773 43.8182 42.1004 43.8182ZM42.1004 42.5067C42.4594 42.5067 42.7504 42.2132 42.7504 41.851C42.7504 41.4888 42.4594 41.1953 42.1004 41.1953C41.7414 41.1953 41.4504 41.4888 41.4504 41.851C41.4504 42.2132 41.7414 42.5067 42.1004 42.5067Z" fill="#242424"/>
<path d="M36.2496 45.7852H26.4996C26.1406 45.7852 25.8496 46.0787 25.8496 46.4409C25.8496 46.803 26.1406 47.0966 26.4996 47.0966H36.2496C36.6086 47.0966 36.8996 46.803 36.8996 46.4409C36.8996 46.0787 36.6086 45.7852 36.2496 45.7852Z" fill="#242424"/>
<path fill-rule="evenodd" clip-rule="evenodd" d="M25.6087 43.2082C25.7712 43.1413 25.9297 43.0647 26.0832 42.9787C22.8332 40.4738 23.4312 35.9492 26.4342 35.9492C27.4352 35.9492 29.7492 36.3295 29.7492 39.8836C29.7362 40.9757 29.2944 42.0181 28.5207 42.782C29.3377 43.0456 30.1915 43.174 31.0492 43.1623C32.5182 43.1623 34.2992 42.7099 34.2992 40.5394C34.2992 40.1772 34.5902 39.8836 34.9492 39.8836C35.3082 39.8836 35.5992 40.1772 35.5992 40.5394C35.5992 43.005 33.9157 44.4738 31.0492 44.4738C29.7807 44.5109 28.5192 44.2715 27.3507 43.7722C26.951 44.0289 26.5289 44.2484 26.0897 44.4279C25.8737 44.5146 25.6283 44.4785 25.4459 44.3331C25.2635 44.1878 25.1719 43.9553 25.2054 43.7233C25.239 43.4912 25.3927 43.2949 25.6087 43.2082ZM28.4492 39.8836C28.4492 37.5361 27.2987 37.2607 26.4342 37.2607C24.7377 37.2607 24.5947 40.5 27.2272 42.1853C27.9504 41.6368 28.3974 40.7949 28.4492 39.8836Z" fill="#242424"/>
</svg>
