<svg width="65" height="64" viewBox="0 0 65 64" fill="none" xmlns="http://www.w3.org/2000/svg">
<path fill-rule="evenodd" clip-rule="evenodd" d="M14.7559 42.1468L17.4998 37.8633H50.5129L47.9246 41.9334L14.7559 42.1468Z" fill="#5900E6"/>
<path fill-rule="evenodd" clip-rule="evenodd" d="M52.5 36.666C52.5 35.5615 51.6046 34.666 50.5 34.666H49.862L49.8447 30.0194H49.852C50.3567 30.0192 50.8165 29.7298 51.0352 29.275C51.2538 28.8201 51.1924 28.2802 50.8773 27.886C50.8508 27.853 50.8213 27.8225 50.7893 27.7947L46.8413 24.436C46.5863 24.1694 46.2333 24.0186 45.8643 24.0186C45.4953 24.0186 45.1424 24.1694 44.8873 24.436L40.9393 27.7947C40.9071 27.8225 40.8775 27.853 40.8507 27.886C40.5332 28.2794 40.4716 28.8208 40.6927 29.2754C40.9034 29.729 41.364 30.0137 41.864 29.9994V34.666H38.5V21.9994H40.8087C41.3594 21.999 41.8532 21.6601 42.0517 21.1464C42.2501 20.6327 42.1122 20.0498 41.7047 19.6794L33.41 12.3587C32.9029 11.8853 32.1176 11.8798 31.604 12.346L23.2813 19.6914C22.881 20.0651 22.7499 20.6456 22.9508 21.1551C23.1517 21.6646 23.6437 21.9994 24.1913 21.9994H26.5V34.666H23.1667L23.1493 30.0194H23.1573C23.662 30.0192 24.1219 29.7298 24.3405 29.275C24.5591 28.8201 24.4978 28.2802 24.1827 27.886C24.1559 27.853 24.1262 27.8225 24.094 27.7947L20.1467 24.436C19.8915 24.1694 19.5384 24.0185 19.1693 24.0185C18.8002 24.0185 18.4472 24.1694 18.192 24.436L14.242 27.794C14.2098 27.8218 14.1801 27.8524 14.1533 27.8854C13.8355 28.2786 13.7739 28.8202 13.9953 29.2747C14.2049 29.7295 14.6662 30.0148 15.1667 29.9994V34.666H14.5C13.3954 34.666 12.5 35.5615 12.5 36.666C12.5 37.7706 13.3954 38.666 14.5 38.666H15.9213L14.1173 41.3714C13.1104 41.5723 12.4192 42.503 12.5179 43.525C12.6166 44.5471 13.4732 45.3283 14.5 45.3327H15.1667V48.666C15.1667 49.4024 15.7636 49.9994 16.5 49.9994H21.8333C22.5697 49.9994 23.1667 49.4024 23.1667 48.666V45.3327H26.5V50.666C26.5 51.4024 27.097 51.9994 27.8333 51.9994H37.1667C37.903 51.9994 38.5 51.4024 38.5 50.666V45.3327H41.864V48.666C41.864 49.4024 42.461 49.9994 43.1973 49.9994H48.5307C49.267 49.9994 49.864 49.4024 49.864 48.666V45.3327H50.5C51.6046 45.3327 52.5 44.4373 52.5 43.3327C52.5 42.2281 51.6046 41.3327 50.5 41.3327H49.0787L50.8827 38.6274C51.8214 38.4444 52.4992 37.6224 52.5 36.666ZM41.9113 28.718L45.7913 25.4167C45.8099 25.4008 45.817 25.3843 45.8246 25.3667C45.8304 25.3534 45.8365 25.3394 45.848 25.3247C45.8748 25.3581 45.9047 25.3889 45.9373 25.4167L49.7813 28.6874C49.0816 28.7218 48.5316 29.2987 48.5307 29.9994V34.666H43.1973V29.9994C43.1989 29.6582 43.0638 29.3307 42.8222 29.0899C42.5805 28.8491 42.2525 28.7152 41.9113 28.718ZM24.1773 20.6787L26.5 20.666C27.2364 20.666 27.8333 21.263 27.8333 21.9994V34.666H37.1667V21.9994C37.1667 21.263 37.7636 20.666 38.5 20.666H40.8153L32.514 13.3454L24.1773 20.6787ZM15.214 28.718L19.094 25.4167C19.1121 25.4009 19.1193 25.3845 19.127 25.367C19.1329 25.3536 19.1391 25.3395 19.1507 25.3247C19.1773 25.3581 19.207 25.3889 19.2393 25.4167L23.0833 28.6874C22.3838 28.7222 21.8342 29.299 21.8333 29.9994V34.666H16.5V29.9994C16.5002 29.6587 16.3646 29.332 16.1233 29.0915C15.8819 28.851 15.5547 28.7166 15.214 28.718ZM14.5 35.9994C14.1318 35.9994 13.8333 36.2979 13.8333 36.666C13.8333 37.0342 14.1318 37.3327 14.5 37.3327H50.5C50.8682 37.3327 51.1667 37.0342 51.1667 36.666C51.1667 36.2979 50.8682 35.9994 50.5 35.9994H14.5ZM42.412 41.3327L44.19 38.666H45.9233L44.1453 41.3327H42.412ZM20.81 41.3327L22.588 38.666H20.8547L19.0767 41.3327H20.81ZM24.188 38.666H25.9213L24.1433 41.3327H22.41L24.188 38.666ZM29.2547 38.666H27.5213L25.7433 41.3327H27.4767L29.2547 38.666ZM30.8547 38.666H32.588L30.81 41.3327H29.0767L30.8547 38.666ZM35.9213 38.666H34.188L32.41 41.3327H34.1433L35.9213 38.666ZM37.5213 38.666H39.2547L37.4767 41.3327H35.7433L37.5213 38.666ZM42.588 38.666H40.8547L39.0767 41.3327H40.81L42.588 38.666ZM19.2547 38.666L17.4767 41.3327H15.7433L17.5213 38.666H19.2547ZM16.5 48.666H21.8333V45.3327H16.5V48.666ZM37.1667 50.666H27.8333V45.3327H37.1667V50.666ZM43.198 48.666H48.5313V45.3327H43.198V48.666ZM51.1667 43.3327C51.1667 43.7009 50.8682 43.9994 50.5 43.9994H14.5C14.1318 43.9994 13.8333 43.7009 13.8333 43.3327C13.8333 42.9645 14.1318 42.666 14.5 42.666H50.5C50.8682 42.666 51.1667 42.9645 51.1667 43.3327ZM47.5233 38.666L45.7453 41.3327H47.4787L49.2567 38.666H47.5233Z" fill="#242424"/>
</svg>
