<svg width="65" height="64" viewBox="0 0 65 64" fill="none" xmlns="http://www.w3.org/2000/svg">
<path fill-rule="evenodd" clip-rule="evenodd" d="M32.5004 32.9872L34.0459 31.2396L34.8098 28.9639L32.0011 29.7756L29.4272 30.9756L26.5004 33.5941L25.1662 36.2067L24.4802 39.5937L23.6215 41.7415H19.0271L14.3974 44.4666L12.9355 46.6697L14.3974 48.8413L17.9452 50.1469L22.5035 51.4003H29.4272L36.1678 50.1469L39.4913 47.7321V45.0849L37.1671 43.2637L31.1666 41.7415L28.6644 41.2651L29.4272 36.8275L31.1666 34.1974L32.5004 32.9872Z" fill="#5900E6"/>
<path fill-rule="evenodd" clip-rule="evenodd" d="M45.1667 16.6667H41.8293C40.398 13.6967 38.3513 12 36.1667 12C33.9707 12 31.914 13.7147 30.482 16.714C26.7587 17.1867 23.8333 21.4667 23.8333 26.6667C23.7905 29.1168 24.4985 31.5213 25.862 33.5573C25.1031 34.5892 24.5443 35.7542 24.2147 36.992C24.0767 37.5218 23.9719 38.0617 23.8696 38.5888L23.834 38.772C23.7007 39.4787 23.5673 40.1527 23.3747 40.804C17.8887 41.2933 12.5 43.1613 12.5 46.3333C12.5 49.564 18.5187 52 26.5 52C34.4813 52 40.5 49.564 40.5 46.3333C40.5 43.5527 35.9527 41.312 29.3667 40.7867C29.4287 40.3347 29.512 39.8787 29.596 39.4287L29.654 39.1193C29.807 38.2612 30.027 37.4164 30.312 36.5927C30.5945 36.6396 30.8803 36.6644 31.1667 36.6667H45.1667C49.21 36.6667 52.5 32.1807 52.5 26.6667C52.5 21.1527 49.21 16.6667 45.1667 16.6667ZM36.1667 13.3333C37.6867 13.3333 39.1733 14.5333 40.334 16.6667H32.0007C33.16 14.5333 34.6467 13.3333 36.1667 13.3333ZM37.1667 26.6667C37.1667 21.888 34.4753 18 31.1667 18C27.858 18 25.1667 21.888 25.1667 26.6667C25.1405 28.7099 25.6824 30.7201 26.732 32.4733C26.7516 32.4501 26.7729 32.4295 26.794 32.4091C26.808 32.3956 26.822 32.3821 26.8353 32.368C26.984 32.206 27.14 32.0473 27.302 31.89L27.337 31.8562C27.385 31.8097 27.4326 31.7635 27.482 31.7173C27.5553 31.6489 27.6296 31.5807 27.7047 31.5127C26.8872 30.0301 26.4719 28.3594 26.5 26.6667C26.5 22.28 28.9127 19.3333 31.1667 19.3333C33.4207 19.3333 35.8333 22.28 35.8333 26.6667C35.8339 27.109 35.8052 27.5508 35.7473 27.9893V28C35.6024 29.4354 35.1093 30.8138 34.3107 32.0153C34.2027 32.1713 34.0896 32.3204 33.9713 32.4627C33.9524 32.4862 33.9319 32.5085 33.91 32.5293C33.5551 32.9579 33.126 33.3192 32.6433 33.596C31.9087 33.9563 31.2982 34.5275 30.89 35.2367C30.8754 35.2645 30.8615 35.2924 30.8475 35.3203C30.9535 35.3289 31.06 35.3333 31.1667 35.3333C34.4753 35.3333 37.1667 31.4453 37.1667 26.6667ZM28.7627 30.6667C28.1298 29.4296 27.8107 28.056 27.8333 26.6667C27.8333 22.9493 29.7747 20.6667 31.1667 20.6667C32.5587 20.6667 34.5 22.9493 34.5 26.6667C34.5011 27.0581 34.4759 27.4492 34.4247 27.8373C34.415 27.9212 34.3989 28.0018 34.3828 28.0824C34.3721 28.1358 34.3614 28.1892 34.3527 28.2433L34.2731 28.2701C34.0906 28.3316 33.9093 28.3927 33.712 28.4567C31.961 28.9417 30.2927 29.6867 28.7627 30.6667ZM26.5 50.6667C33.9667 50.6667 39.1667 48.3827 39.1667 46.3333C39.1667 44.6493 35.4007 42.612 29.28 42.1153C29.282 42.4978 29.3317 42.8785 29.428 43.2487C29.5917 43.9134 30.0714 44.4554 30.7113 44.6987C31.0611 44.815 31.2503 45.1929 31.134 45.5427C31.0177 45.8924 30.6398 46.0817 30.29 45.9653C29.2244 45.5858 28.4186 44.6995 28.142 43.6027C27.8571 42.1371 27.907 40.6262 28.288 39.1827L28.3453 38.876C28.5406 37.7473 28.8502 36.6414 29.2693 35.5753C29.4067 35.2373 29.5533 34.9167 29.7073 34.622C30.2329 33.6782 31.0304 32.9144 31.996 32.43C32.3582 32.219 32.6781 31.9425 32.9393 31.6147C32.9515 31.6005 32.9644 31.5869 32.978 31.574L32.9853 31.566L32.9933 31.558C33.0782 31.4493 33.1567 31.3265 33.235 31.204C33.2575 31.1688 33.28 31.1335 33.3027 31.0987C33.3287 31.059 33.3559 31.0211 33.3831 30.9831C33.4278 30.9208 33.4724 30.8585 33.5113 30.7893C33.6483 30.5392 33.7694 30.2807 33.874 30.0153C33.8821 29.9955 33.8915 29.9764 33.9008 29.9576C33.9105 29.9379 33.9201 29.9185 33.928 29.8987C33.9361 29.8783 33.9423 29.8563 33.9485 29.8342C33.9541 29.8144 33.9597 29.7946 33.9667 29.776C32.1769 30.2574 30.4913 31.0649 28.9947 32.158C28.335 32.6999 27.7337 33.3092 27.2007 33.976C26.4053 34.9624 25.8269 36.1055 25.5033 37.3307C25.36 37.8793 25.254 38.4353 25.142 39.0247C24.9935 39.91 24.7826 40.7838 24.5107 41.6393V41.644C24.3417 42.1536 24.1194 42.6439 23.8473 43.1067C23.135 44.4632 21.7406 45.3242 20.2087 45.3533C20.0597 45.3536 19.9108 45.3456 19.7627 45.3293C19.3968 45.2902 19.1318 44.9619 19.1707 44.596C19.1874 44.4194 19.2746 44.257 19.4127 44.1456C19.5507 44.0341 19.7278 43.9831 19.904 44.004C21.068 44.088 22.1691 43.4669 22.6993 42.4273C22.7257 42.3829 22.7493 42.3357 22.7728 42.2884C22.7885 42.2569 22.8041 42.2253 22.8207 42.1947C17.1713 42.8133 13.8333 44.7247 13.8333 46.3333C13.8333 48.3827 19.0333 50.6667 26.5 50.6667ZM45.1667 35.3333H34.8093C37.0113 33.606 38.5 30.372 38.5 26.6667C38.5 22.9613 37.0113 19.7273 34.8093 18H40.962C41.8242 20.1731 42.3235 22.473 42.44 24.808C41.5269 25.1587 40.9995 26.1163 41.1913 27.0754C41.383 28.0345 42.2381 28.7158 43.2158 28.6884C44.1935 28.6611 45.0092 27.933 45.147 26.9647C45.2848 25.9964 44.7046 25.0697 43.7733 24.7707C43.6568 22.458 43.1946 20.1758 42.402 18H45.1667C48.4753 18 51.1667 21.888 51.1667 26.6667C51.1667 31.4453 48.4753 35.3333 45.1667 35.3333ZM43.8333 26.6667C43.8333 26.2985 43.5349 26 43.1667 26C42.7985 26 42.5 26.2985 42.5 26.6667C42.5 27.0349 42.7985 27.3333 43.1667 27.3333C43.5349 27.3333 43.8333 27.0349 43.8333 26.6667Z" fill="#242424"/>
<path d="M27.0925 48.0038C21.4219 48.6338 18.2059 46.7791 18.1739 46.7604C17.8584 46.5769 17.454 46.6812 17.2666 46.9943C17.0792 47.3075 17.1784 47.7132 17.4892 47.9044C17.6125 47.9784 20.1592 49.4698 24.7479 49.4698C25.5803 49.469 26.412 49.422 27.2392 49.3291C27.476 49.3029 27.6807 49.1524 27.7764 48.9343C27.8721 48.7161 27.8442 48.4635 27.7031 48.2716C27.562 48.0797 27.3293 47.9776 27.0925 48.0038Z" fill="#242424"/>
</svg>
