<svg width="65" height="64" viewBox="0 0 65 64" fill="none" xmlns="http://www.w3.org/2000/svg">
<path fill-rule="evenodd" clip-rule="evenodd" d="M20.9888 29.4811L19.0005 33.861L18.4648 42.962V47.4556L19.7833 48.2526H29.587L32.5005 47.4556L34.9891 44.6792L37.7634 42.1516V34.7236L39.0277 30.9768L40.837 29.0015H20.9888V29.4811Z" fill="#5900E6"/>
<path d="M46 24.9873C46.8686 24.9873 47.5 24.0423 47.5 22.7405C47.5 21.4386 46.8686 20.4937 46 20.4937C45.1313 20.4937 44.5 21.4386 44.5 22.7405C44.5 24.0423 45.1313 24.9873 46 24.9873Z" fill="#242424"/>
<path fill-rule="evenodd" clip-rule="evenodd" d="M50.5 22.7404C50.5 25.4005 49.5105 27.6298 48.0509 28.732C49.5105 29.8342 50.5 32.0634 50.5 34.7234C50.5 38.5032 48.5239 41.4639 46 41.4639H38.5V42.2127C38.5 42.4117 38.4209 42.6019 38.2803 42.7423L32.2803 48.7338C32.1397 48.8742 31.9492 48.9532 31.75 48.9532H20.5C18.8462 48.9532 17.5 47.6103 17.5 45.9596V41.0674C15.7136 40.1413 14.5 37.6466 14.5 34.7234C14.5 32.0634 15.4895 29.8342 16.9491 28.7319C15.4895 27.6297 14.5 25.4004 14.5 22.7404C14.5 18.9607 16.4761 16 19 16H46C48.5239 16 50.5 18.9607 50.5 22.7404ZM49 22.7405C49 19.8991 47.626 17.4979 46 17.4979C44.374 17.4979 43 19.899 43 22.7404C43 25.5819 44.374 27.983 46 27.983C47.626 27.983 49 25.5819 49 22.7405ZM16 22.7404C16 19.899 17.374 17.4978 19 17.4978H43.1732C42.1547 18.7236 41.5 20.5874 41.5 22.7404C41.5 24.8935 42.1547 26.7573 43.1732 27.983H19C17.374 27.983 16 25.5819 16 22.7404ZM17.5 39.2329V39.2192C17.5 34.1508 18.8309 31.0534 19.7828 29.4809H19C17.374 29.4809 16 31.882 16 34.7234C16 36.5847 16.6018 38.2989 17.5 39.2329ZM32.5 46.3963V44.4596C32.5 43.6339 33.1724 42.9618 34 42.9618H35.9394L32.5 46.3963ZM37 41.4639V39.217C37 33.7701 38.0768 30.9334 39.0272 29.4809H21.5976C20.9808 30.2656 19 33.2483 19 39.2193V45.9597C19 46.7847 19.6723 47.4554 20.5 47.4554H31V44.4596C31 42.8074 32.3462 41.4639 34 41.4639H37ZM38.5 39.9654V39.217C38.5 31.9596 40.4997 29.8773 40.9804 29.4809H43.1731C42.1547 30.7066 41.5 32.5704 41.5 34.7234C41.5 36.8764 42.1547 38.7401 43.1729 39.9657L38.5 39.9654ZM43 34.7234C43 37.5649 44.374 39.966 46 39.966C47.626 39.966 49 37.5649 49 34.7234C49 31.882 47.626 29.4809 46 29.4809C44.374 29.4809 43 31.882 43 34.7234Z" fill="#242424"/>
<path d="M46 32.4766C45.1313 32.4766 44.5 33.4215 44.5 34.7234C44.5 36.0253 45.1313 36.9702 46 36.9702C46.8686 36.9702 47.5 36.0253 47.5 34.7234C47.5 33.4215 46.8686 32.4766 46 32.4766Z" fill="#242424"/>
</svg>
