<svg width="65" height="64" viewBox="0 0 65 64" fill="none" xmlns="http://www.w3.org/2000/svg">
<path fill-rule="evenodd" clip-rule="evenodd" d="M31.9877 38.8244L25.9464 32.931L24.5078 29.6655L25.3177 26.9936L27.4427 25.3711L29.5853 25.6053L31.457 26.9936L32.3223 27.7531L34.4378 25.3711H36.1437L38.2204 25.9996L39.1194 27.7531L39.5579 29.9996L38.2204 32.931L35.3531 35.8094L31.9877 38.8244Z" fill="#5900E6"/>
<path fill-rule="evenodd" clip-rule="evenodd" d="M19.9837 50C19.9837 51.1046 20.8791 52 21.9837 52H41.9837C43.0883 52 43.9837 51.1046 43.9837 50V28.442L50.1837 25.816C50.7092 25.6127 51.1245 25.1972 51.3276 24.6716C51.5307 24.146 51.5026 23.5592 51.2504 23.0554L47.019 14.58C46.233 12.9949 44.6143 11.9944 42.845 12H21.1224C19.3531 11.9944 17.7344 12.9949 16.9484 14.58L12.711 23.0554C12.4607 23.5562 12.4318 24.1391 12.6313 24.6624C12.8309 25.1856 13.2407 25.6011 13.761 25.808L19.9837 28.442V50ZM21.9837 50.6667C21.6155 50.6667 21.317 50.3682 21.317 50V49.3334H42.6504V50C42.6504 50.3682 42.3519 50.6667 41.9837 50.6667H21.9837ZM49.689 24.58C49.8724 24.5142 50.0183 24.3722 50.089 24.1907C50.1581 24.0161 50.1491 23.8202 50.0644 23.6527L49.8644 23.2527L43.9837 25.7727V26.994L49.689 24.58ZM25.317 13.3334H26.6504V14C26.6504 16.9455 29.0382 19.3334 31.9837 19.3334C34.9292 19.3334 37.317 16.9455 37.317 14V13.3334H38.6504V14C38.6504 17.6819 35.6656 20.6667 31.9837 20.6667C28.3018 20.6667 25.317 17.6819 25.317 14V13.3334ZM35.9837 13.3334H27.9837V14C27.9837 16.2092 29.7746 18 31.9837 18C34.1928 18 35.9837 16.2092 35.9837 14V13.3334ZM18.141 15.176C18.7025 14.0439 19.8587 13.3293 21.1224 13.3334H23.9837V14C23.9837 18.4183 27.5654 22 31.9837 22C36.402 22 39.9837 18.4183 39.9837 14V13.3334H42.845C44.1087 13.3293 45.2649 14.0439 45.8264 15.176L49.267 22.058L43.9837 24.3227V22C43.9837 21.6318 43.6852 21.3334 43.317 21.3334C42.9488 21.3334 42.6504 21.6318 42.6504 22V25.3334V28V48H21.317V28V25.3374V22C21.317 21.6318 21.0186 21.3334 20.6504 21.3334C20.2822 21.3334 19.9837 21.6318 19.9837 22V24.3227L14.7004 22.056L18.141 15.176ZM13.8782 24.1907C13.9461 24.366 14.0849 24.5045 14.2604 24.572L19.9837 26.994V25.7727L14.1037 23.2514L13.9037 23.6514C13.8195 23.8195 13.8102 24.0153 13.8782 24.1907Z" fill="#242424"/>
<path fill-rule="evenodd" clip-rule="evenodd" d="M28.5177 36.467L28.535 36.4823C28.889 36.7997 29.257 37.1263 29.6417 37.467C30.2384 37.995 30.8724 38.5563 31.539 39.1623C31.7934 39.3938 32.182 39.3938 32.4364 39.1623C33.103 38.5563 33.737 37.995 34.3337 37.467C34.7184 37.1263 35.0864 36.8003 35.4404 36.4823L35.4577 36.467C38.2237 33.9837 39.991 32.1217 39.991 29.511C39.9844 26.7483 38.1217 24.667 35.651 24.667C34.1714 24.7046 32.803 25.4612 31.9844 26.6943C31.1658 25.4612 29.7974 24.7046 28.3177 24.667C25.847 24.667 23.9844 26.7483 23.9844 29.509C23.9844 32.1197 25.7484 33.9817 28.5177 36.467ZM38.5624 28.667C38.6195 28.9441 38.6492 29.2261 38.651 29.509C38.6502 29.6733 38.6395 29.8373 38.619 30.0003H25.3524C25.331 29.8374 25.3195 29.6733 25.3177 29.509C25.3195 29.2261 25.3492 28.9441 25.4064 28.667H38.5624ZM37.363 32.667C37.6992 32.257 37.9868 31.8096 38.2204 31.3337H25.7484C25.9819 31.8096 26.2696 32.257 26.6057 32.667H37.363ZM31.9844 37.7683C31.5937 37.4166 31.218 37.0832 30.8533 36.7595L30.749 36.667H33.2197L33.1154 36.7595C32.7507 37.0831 32.375 37.4167 31.9844 37.7683ZM29.251 35.3337H34.7177C35.2397 34.867 35.7177 34.4217 36.1437 34.0003H27.825C28.251 34.4217 28.729 34.867 29.251 35.3337ZM35.651 26.0003C36.6178 26.0087 37.5129 26.5119 38.0224 27.3337H33.1724C33.7466 26.5283 34.6626 26.0356 35.651 26.0003ZM30.7997 27.3337C30.2261 26.5259 29.3079 26.0327 28.3177 26.0003C27.3509 26.0087 26.4558 26.5119 25.9464 27.3337H30.7997Z" fill="#242424"/>
</svg>
