<svg width="150" height="40" viewBox="0 0 150 40" fill="none" xmlns="http://www.w3.org/2000/svg">
<path d="M30.8853 6.68427C34.3279 5.56848 38.1639 5.62813 41.5293 6.979C44.6733 8.24567 47.2658 10.8036 48.5691 13.9299C49.8934 16.9825 50.1393 20.4351 49.5351 23.6878C46.226 24.2071 42.9063 24.6632 39.6042 25.2387C42.2354 22.6772 42.0878 17.8808 39.3372 15.4562C37.2049 13.5369 33.548 13.6597 31.5843 15.7685C28.7283 18.6702 29.2728 24.3439 33.0316 26.2316C29.8454 26.6878 26.6663 27.2036 23.4836 27.6843C21.3232 23.372 21.2038 18.1018 23.1569 13.6913C24.6077 10.4141 27.4883 7.82111 30.8853 6.68427Z" fill="white"/>
<path d="M94.6124 9.55106C100.05 4.41071 109.767 4.68439 114.766 10.3125C115.598 11.2142 116.259 12.2598 116.828 13.344C113.828 13.8177 110.824 14.2669 107.824 14.7335C106.63 14.9861 105.604 13.9861 104.392 14.1195C102.692 13.9546 101.115 14.7546 99.8888 15.8668C96.808 16.544 93.6288 16.8493 90.5129 17.3932C91.0574 14.4493 92.3817 11.5897 94.6124 9.55106Z" fill="white"/>
<path d="M3.51288 6.57227C9.83606 6.57227 16.1592 6.57227 22.4824 6.57227C22.4824 8.82841 22.4824 11.081 22.4824 13.3337C18.5023 13.3337 14.5187 13.3337 10.5386 13.3337C10.5386 14.5021 10.5386 15.674 10.5386 16.8424C13.7564 16.8424 16.9707 16.8424 20.1885 16.8424C20.1885 19.0986 20.1885 21.3512 20.1885 23.6038C16.9707 23.6003 13.7564 23.6038 10.5386 23.6003C10.5351 25.6249 10.5422 27.6495 10.5351 29.674C8.19555 30.0284 5.85597 30.3933 3.51288 30.7512C3.51288 22.6916 3.51288 14.6319 3.51288 6.57227Z" fill="white"/>
<path d="M50.8419 6.66697C54.7482 6.69504 58.6546 6.61083 62.5574 6.71258C65.4379 6.75469 68.5363 7.67749 70.3665 10.0284C72.5656 12.8775 72.829 16.867 71.8735 20.2389C64.8689 21.3477 57.8501 22.3968 50.8384 23.4845C50.8489 17.8775 50.8419 12.274 50.8419 6.66697ZM58.1241 18.9442C59.4836 18.9056 60.9204 19.1371 62.2026 18.5863C64.0293 17.7968 64.0363 14.7828 62.2869 13.9091C60.9801 13.3196 59.5152 13.5301 58.1311 13.5021C58.1206 15.3161 58.1276 17.1301 58.1241 18.9442Z" fill="white"/>
<path d="M119.087 6.66699C121.781 6.66699 124.472 6.66699 127.166 6.66699C127.166 8.36524 127.166 10.0635 127.163 11.7652C124.472 12.1758 121.778 12.5898 119.087 13.0038C119.087 10.8916 119.087 8.77927 119.087 6.66699Z" fill="white"/>
<path d="M135.432 6.66699C138.119 6.66699 140.803 6.66699 143.491 6.66699C143.491 7.53015 143.487 8.3898 143.487 9.25296C140.8 9.67401 138.112 10.081 135.429 10.4951C135.436 9.21787 135.432 7.94419 135.432 6.66699Z" fill="white"/>
<path d="M69.1581 6.84559C72.2213 6.80699 75.281 6.93681 78.3443 6.91927C79.6475 9.78594 80.9543 12.6526 82.2295 15.5298C83.3993 12.6596 84.6323 9.81752 85.774 6.93681C88.7459 6.90524 91.7143 6.93681 94.6862 6.91927C92.5398 10.4842 90.5902 14.1824 88.3665 17.6842C84.692 18.3228 80.9965 18.8456 77.308 19.4035C74.5749 15.2245 71.9262 10.9965 69.1581 6.84559Z" fill="white"/>
<path d="M135.436 16.9301C138.123 16.6003 140.807 16.281 143.491 15.9512C143.375 19.495 143.754 23.074 143.224 26.5898C142.676 29.8354 140.796 32.9828 137.814 34.5266C134.61 36.1757 130.774 36.4319 127.307 35.5442C124.237 34.7582 121.525 32.5933 120.27 29.6599C118.648 26.3091 119.167 22.5056 119.087 18.9091C121.781 18.5828 124.472 18.2529 127.166 17.9301C127.215 20.1512 127.057 22.3757 127.268 24.5898C127.391 26.0389 128.076 27.5336 129.411 28.2389C130.978 28.8985 133.043 28.695 134.181 27.3406C135.137 26.2705 135.327 24.7828 135.425 23.4073C135.453 21.2494 135.418 19.088 135.436 16.9301Z" fill="white"/>
<path d="M109.964 20.0142C112.732 19.6704 115.504 19.3616 118.268 18.9932C118.651 22.9581 117.534 27.1686 114.889 30.2002C110.196 35.6353 101.217 36.2037 95.575 31.9476C92.5679 29.6879 90.8185 26.0704 90.397 22.3826C93.0351 22.0633 95.6733 21.7581 98.308 21.4177C98.5925 23.1476 99.411 24.8879 100.911 25.8809C103.057 27.3721 106.293 27.1721 108.105 25.2423C109.525 23.916 110.08 21.909 109.964 20.0142Z" fill="white"/>
<path d="M78.8782 23.7863C81.2705 23.488 83.6663 23.2038 86.0621 22.9126C86.1604 26.8529 86.1885 30.7968 86.3361 34.7336C83.8489 34.7407 81.3618 34.7372 78.8747 34.7372C78.8782 31.088 78.8747 27.4354 78.8782 23.7863Z" fill="white"/>
<path d="M50.8454 27.1825C56.4696 26.4913 62.0972 25.8211 67.7213 25.1299C69.7201 28.3615 71.6838 31.6106 73.6827 34.8387C70.6862 34.8141 67.6932 34.8527 64.6967 34.8176C63.0984 32.0948 61.4824 29.386 59.8771 26.6667C59.3536 26.6667 58.8337 26.6667 58.3138 26.6667C58.3138 29.386 58.3138 32.1088 58.3138 34.8316C55.8232 34.8281 53.3326 34.8316 50.8454 34.8281C50.8419 32.2808 50.8419 29.7299 50.8454 27.1825Z" fill="white"/>
<path d="M25.2365 30.2739C32.9122 29.3546 40.5878 28.4318 48.26 27.481C46.8267 30.1687 44.5293 32.4248 41.6979 33.5967C36.2283 35.8774 29.2623 34.7897 25.2365 30.2739Z" fill="white"/>
<path d="M3.51288 32.9161C5.85597 32.6284 8.19555 32.3477 10.5386 32.0635C10.5386 32.9231 10.5386 33.7828 10.5386 34.6459C8.19555 34.6424 5.85597 34.6424 3.51288 34.6459C3.51288 34.067 3.51288 33.4915 3.51288 32.9161Z" fill="white"/>
</svg>
