<svg width="40" height="40" viewBox="0 0 40 40" fill="none" xmlns="http://www.w3.org/2000/svg">
<path fill-rule="evenodd" clip-rule="evenodd" d="M20 36.6668C29.2047 36.6668 36.6667 29.2049 36.6667 20.0002C36.6667 10.7954 29.2047 3.3335 20 3.3335C10.7952 3.3335 3.33333 10.7954 3.33333 20.0002C3.33333 29.2049 10.7952 36.6668 20 36.6668ZM12.5 15.8335C12.5 13.9925 13.9924 12.5002 15.8333 12.5002H24.1667C26.0076 12.5002 27.5 13.9925 27.5 15.8335V24.1668C27.5 26.0078 26.0076 27.5002 24.1667 27.5002H15.8333C13.9924 27.5002 12.5 26.0078 12.5 24.1668V15.8335ZM15.8333 10.8335C13.0719 10.8335 10.8333 13.0721 10.8333 15.8335V24.1668C10.8333 26.9283 13.0719 29.1668 15.8333 29.1668H24.1667C26.9281 29.1668 29.1667 26.9283 29.1667 24.1668V15.8335C29.1667 13.0721 26.9281 10.8335 24.1667 10.8335H15.8333ZM18.8846 17.745C19.3514 17.5029 19.8826 17.414 20.4028 17.4911C20.9333 17.5698 21.4245 17.8171 21.8038 18.1963C22.1831 18.5756 22.4303 19.0668 22.509 19.5974C22.5861 20.1175 22.4973 20.6488 22.2551 21.1155C22.0129 21.5823 21.6297 21.9608 21.16 22.1972C20.6903 22.4336 20.158 22.5159 19.6389 22.4324C19.1197 22.3488 18.6401 22.1037 18.2683 21.7319C17.8965 21.36 17.6513 20.8804 17.5678 20.3613C17.4843 19.8421 17.5665 19.3098 17.803 18.8401C18.0394 18.3704 18.4179 17.9872 18.8846 17.745ZM20.6472 15.8425C19.7803 15.714 18.8949 15.862 18.117 16.2657C17.3391 16.6693 16.7083 17.308 16.3142 18.0908C15.9202 18.8736 15.7831 19.7608 15.9223 20.6261C16.0615 21.4913 16.4701 22.2907 17.0898 22.9104C17.7095 23.5301 18.5088 23.9386 19.3741 24.0779C20.2394 24.2171 21.1265 24.0799 21.9093 23.6859C22.6922 23.2919 23.3308 22.6611 23.7345 21.8831C24.1381 21.1052 24.2862 20.2198 24.1576 19.3529C24.0265 18.4686 23.6145 17.65 22.9823 17.0178C22.3502 16.3857 21.5315 15.9736 20.6472 15.8425ZM23.75 15.4168C23.75 14.9566 24.1231 14.5835 24.5833 14.5835H24.5933C25.0536 14.5835 25.4267 14.9566 25.4267 15.4168C25.4267 15.8771 25.0536 16.2502 24.5933 16.2502H24.5833C24.1231 16.2502 23.75 15.8771 23.75 15.4168Z" fill="#F2F2F2"/>
</svg>
