<svg width="188" height="24" viewBox="0 0 188 24" fill="none" xmlns="http://www.w3.org/2000/svg">
<g clip-path="url(#clip0_502_9879)">
<path fill-rule="evenodd" clip-rule="evenodd" d="M4.92895 13.4142C4.1788 14.1644 3.75738 15.1818 3.75738 16.2427C3.75738 17.3035 4.1788 18.321 4.92895 19.0711C5.67909 19.8212 6.69651 20.2427 7.75738 20.2427C8.28266 20.2427 8.80281 20.1392 9.28811 19.9382C9.77341 19.7372 10.2144 19.4425 10.5858 19.0711L12.7071 16.9498C13.0976 16.5593 13.7308 16.5593 14.1213 16.9498C14.5119 17.3403 14.5119 17.9735 14.1213 18.364L12 20.4853C11.4429 21.0425 10.7814 21.4844 10.0535 21.786C9.32552 22.0875 8.54531 22.2427 7.75738 22.2427C6.16608 22.2427 4.63995 21.6105 3.51474 20.4853C2.38952 19.3601 1.75738 17.834 1.75738 16.2427C1.75738 14.6514 2.38952 13.1253 3.51474 12L5.63606 9.87871C6.02658 9.48819 6.65974 9.48819 7.05027 9.87871C7.44079 10.2692 7.44079 10.9024 7.05027 11.2929L4.92895 13.4142ZM9.8787 7.05029C9.48817 6.65976 9.48817 6.0266 9.8787 5.63607L12 3.51475C12.5572 2.9576 13.2186 2.51565 13.9466 2.21412C14.6745 1.91259 15.4547 1.75739 16.2427 1.75739C17.0306 1.7574 17.8108 1.91259 18.5388 2.21412C19.2667 2.51565 19.9281 2.9576 20.4853 3.51475C21.0424 4.07191 21.4844 4.73334 21.7859 5.46129C22.0875 6.18925 22.2427 6.96946 22.2427 7.75739C22.2427 8.54532 22.0875 9.32554 21.7859 10.0535C21.4844 10.7814 21.0424 11.4429 20.4853 12L18.364 14.1214C17.9735 14.5119 17.3403 14.5119 16.9498 14.1214C16.5592 13.7308 16.5592 13.0977 16.9498 12.7071L19.0711 10.5858C19.4425 10.2144 19.7372 9.77343 19.9382 9.28813C20.1392 8.80283 20.2427 8.28268 20.2427 7.7574C20.2427 7.23211 20.1392 6.71196 19.9382 6.22666C19.7372 5.74136 19.4425 5.3004 19.0711 4.92897C18.6996 4.55753 18.2587 4.26289 17.7734 4.06188C17.2881 3.86086 16.7679 3.75739 16.2427 3.7574C15.7174 3.75739 15.1972 3.86086 14.7119 4.06188C14.2266 4.26289 13.7857 4.55753 13.4142 4.92897L11.2929 7.05029C10.9024 7.44081 10.2692 7.44081 9.8787 7.05029Z" fill="#5900E6"/>
<path fill-rule="evenodd" clip-rule="evenodd" d="M8.46449 15.5357C8.07397 15.1452 8.07397 14.512 8.46449 14.1215L14.1213 8.46465C14.5119 8.07413 15.145 8.07413 15.5356 8.46465C15.9261 8.85518 15.9261 9.48834 15.5356 9.87887L9.87871 15.5357C9.48818 15.9262 8.85502 15.9262 8.46449 15.5357Z" fill="#5900E6"/>
</g>
<path d="M33.584 18V6.8H43.488V18H41.44V8.048L41.92 8.56H35.152L35.632 8.048V18H33.584ZM51.1581 18.112C50.4648 18.112 49.8301 17.952 49.2541 17.632C48.6888 17.312 48.2355 16.832 47.8941 16.192C47.5635 15.5413 47.3981 14.72 47.3981 13.728C47.3981 12.7253 47.5581 11.904 47.8781 11.264C48.2088 10.624 48.6568 10.1493 49.2221 9.84C49.7875 9.52 50.4328 9.36 51.1581 9.36C52.0008 9.36 52.7421 9.54133 53.3821 9.904C54.0328 10.2667 54.5448 10.7733 54.9181 11.424C55.3021 12.0747 55.4941 12.8427 55.4941 13.728C55.4941 14.6133 55.3021 15.3867 54.9181 16.048C54.5448 16.6987 54.0328 17.2053 53.3821 17.568C52.7421 17.9307 52.0008 18.112 51.1581 18.112ZM46.4221 21.104V9.456H48.3261V11.472L48.2621 13.744L48.4221 16.016V21.104H46.4221ZM50.9341 16.4C51.4141 16.4 51.8408 16.2933 52.2141 16.08C52.5981 15.8667 52.9021 15.5573 53.1261 15.152C53.3501 14.7467 53.4621 14.272 53.4621 13.728C53.4621 13.1733 53.3501 12.6987 53.1261 12.304C52.9021 11.8987 52.5981 11.5893 52.2141 11.376C51.8408 11.1627 51.4141 11.056 50.9341 11.056C50.4541 11.056 50.0221 11.1627 49.6381 11.376C49.2541 11.5893 48.9501 11.8987 48.7261 12.304C48.5021 12.6987 48.3901 13.1733 48.3901 13.728C48.3901 14.272 48.5021 14.7467 48.7261 15.152C48.9501 15.5573 49.2541 15.8667 49.6381 16.08C50.0221 16.2933 50.4541 16.4 50.9341 16.4ZM57.4846 18V9.456H59.4846V15.088L64.2046 9.456H66.0286V18H64.0286V12.368L59.3246 18H57.4846ZM74.847 18L71.759 13.904L73.391 12.896L77.199 18H74.847ZM68.719 18V9.456H70.719V18H68.719ZM70.127 14.576V12.912H73.023V14.576H70.127ZM73.583 13.968L71.711 13.744L74.847 9.456H76.991L73.583 13.968ZM83.3456 18.112C82.6523 18.112 82.0176 17.952 81.4416 17.632C80.8763 17.312 80.423 16.832 80.0816 16.192C79.751 15.5413 79.5856 14.72 79.5856 13.728C79.5856 12.7253 79.7456 11.904 80.0656 11.264C80.3963 10.624 80.8443 10.1493 81.4096 9.84C81.975 9.52 82.6203 9.36 83.3456 9.36C84.1883 9.36 84.9296 9.54133 85.5696 9.904C86.2203 10.2667 86.7323 10.7733 87.1056 11.424C87.4896 12.0747 87.6816 12.8427 87.6816 13.728C87.6816 14.6133 87.4896 15.3867 87.1056 16.048C86.7323 16.6987 86.2203 17.2053 85.5696 17.568C84.9296 17.9307 84.1883 18.112 83.3456 18.112ZM78.6096 21.104V9.456H80.5136V11.472L80.4496 13.744L80.6096 16.016V21.104H78.6096ZM83.1216 16.4C83.6016 16.4 84.0283 16.2933 84.4016 16.08C84.7856 15.8667 85.0896 15.5573 85.3136 15.152C85.5376 14.7467 85.6496 14.272 85.6496 13.728C85.6496 13.1733 85.5376 12.6987 85.3136 12.304C85.0896 11.8987 84.7856 11.5893 84.4016 11.376C84.0283 11.1627 83.6016 11.056 83.1216 11.056C82.6416 11.056 82.2096 11.1627 81.8256 11.376C81.4416 11.5893 81.1376 11.8987 80.9136 12.304C80.6896 12.6987 80.5776 13.1733 80.5776 13.728C80.5776 14.272 80.6896 14.7467 80.9136 15.152C81.1376 15.5573 81.4416 15.8667 81.8256 16.08C82.2096 16.2933 82.6416 16.4 83.1216 16.4ZM93.6561 18.112C92.7068 18.112 91.8748 17.9253 91.1601 17.552C90.4561 17.168 89.9068 16.6453 89.5121 15.984C89.1281 15.3227 88.9361 14.5707 88.9361 13.728C88.9361 12.8747 89.1228 12.1227 89.4961 11.472C89.8801 10.8107 90.4028 10.2933 91.0641 9.92C91.7361 9.54667 92.4988 9.36 93.3521 9.36C94.1841 9.36 94.9255 9.54133 95.5761 9.904C96.2268 10.2667 96.7388 10.7787 97.1121 11.44C97.4855 12.1013 97.6721 12.88 97.6721 13.776C97.6721 13.8613 97.6668 13.9573 97.6561 14.064C97.6561 14.1707 97.6508 14.272 97.6401 14.368H90.5201V13.04H96.5841L95.8001 13.456C95.8108 12.9653 95.7095 12.5333 95.4961 12.16C95.2828 11.7867 94.9895 11.4933 94.6161 11.28C94.2535 11.0667 93.8321 10.96 93.3521 10.96C92.8615 10.96 92.4295 11.0667 92.0561 11.28C91.6935 11.4933 91.4055 11.792 91.1921 12.176C90.9895 12.5493 90.8881 12.992 90.8881 13.504V13.824C90.8881 14.336 91.0055 14.7893 91.2401 15.184C91.4748 15.5787 91.8055 15.8827 92.2321 16.096C92.6588 16.3093 93.1495 16.416 93.7041 16.416C94.1841 16.416 94.6161 16.3413 95.0001 16.192C95.3841 16.0427 95.7255 15.808 96.0241 15.488L97.0961 16.72C96.7121 17.168 96.2268 17.5147 95.6401 17.76C95.0641 17.9947 94.4028 18.112 93.6561 18.112ZM99.8596 18V9.456H108.052V18H106.068V10.688L106.532 11.152H101.396L101.86 10.688V18H99.8596ZM110.75 18V9.456H112.75V15.088L117.47 9.456H119.294V18H117.294V12.368L112.59 18H110.75ZM123.761 18V10.672L124.225 11.152H120.753V9.456H128.753V11.152H125.297L125.761 10.672V18H123.761ZM134.491 12.272C135.59 12.272 136.427 12.5173 137.003 13.008C137.579 13.4987 137.867 14.192 137.867 15.088C137.867 16.016 137.547 16.7413 136.907 17.264C136.267 17.776 135.366 18.0267 134.203 18.016L130.203 18V9.456H132.203V12.256L134.491 12.272ZM134.027 16.544C134.614 16.5547 135.062 16.432 135.371 16.176C135.681 15.92 135.835 15.5467 135.835 15.056C135.835 14.5653 135.681 14.2133 135.371 14C135.073 13.776 134.625 13.6587 134.027 13.648L132.203 13.632V16.528L134.027 16.544ZM149.471 18.16C149.46 18.16 149.412 18.16 149.327 18.16C149.252 18.16 149.178 18.16 149.103 18.16C149.039 18.16 148.996 18.16 148.975 18.16C147.172 18.1387 145.775 17.7493 144.783 16.992C143.791 16.224 143.295 15.1307 143.295 13.712C143.295 12.304 143.791 11.2267 144.783 10.48C145.775 9.73333 147.188 9.34933 149.023 9.328C149.044 9.328 149.087 9.328 149.151 9.328C149.226 9.328 149.295 9.328 149.359 9.328C149.434 9.328 149.476 9.328 149.487 9.328C151.332 9.328 152.767 9.70667 153.791 10.464C154.826 11.2107 155.343 12.2933 155.343 13.712C155.343 15.1413 154.826 16.24 153.791 17.008C152.767 17.776 151.327 18.16 149.471 18.16ZM149.407 16.496C150.314 16.496 151.06 16.3947 151.647 16.192C152.234 15.9787 152.671 15.6693 152.959 15.264C153.247 14.848 153.391 14.3307 153.391 13.712C153.391 13.104 153.247 12.6027 152.959 12.208C152.671 11.8027 152.234 11.504 151.647 11.312C151.06 11.1093 150.314 11.008 149.407 11.008C149.386 11.008 149.332 11.008 149.247 11.008C149.172 11.008 149.124 11.008 149.103 11.008C148.218 11.008 147.492 11.1147 146.927 11.328C146.362 11.5307 145.94 11.8293 145.663 12.224C145.396 12.6187 145.263 13.1147 145.263 13.712C145.263 14.32 145.396 14.8267 145.663 15.232C145.94 15.6373 146.362 15.9467 146.927 16.16C147.503 16.3733 148.228 16.4853 149.103 16.496C149.124 16.496 149.172 16.496 149.247 16.496C149.332 16.496 149.386 16.496 149.407 16.496ZM148.367 21.104V6.128H150.255V21.104H148.367ZM162.356 18V16.272L162.244 15.904V12.88C162.244 12.2933 162.068 11.84 161.716 11.52C161.364 11.1893 160.831 11.024 160.116 11.024C159.636 11.024 159.161 11.0987 158.692 11.248C158.233 11.3973 157.844 11.6053 157.524 11.872L156.74 10.416C157.199 10.064 157.743 9.80267 158.372 9.632C159.012 9.45067 159.673 9.36 160.356 9.36C161.593 9.36 162.548 9.65867 163.22 10.256C163.903 10.8427 164.244 11.7547 164.244 12.992V18H162.356ZM159.668 18.112C159.028 18.112 158.468 18.0053 157.988 17.792C157.508 17.568 157.135 17.264 156.868 16.88C156.612 16.4853 156.484 16.0427 156.484 15.552C156.484 15.072 156.596 14.64 156.82 14.256C157.055 13.872 157.433 13.568 157.956 13.344C158.479 13.12 159.172 13.008 160.036 13.008H162.516V14.336H160.18C159.497 14.336 159.039 14.448 158.804 14.672C158.569 14.8853 158.452 15.152 158.452 15.472C158.452 15.8347 158.596 16.1227 158.884 16.336C159.172 16.5493 159.572 16.656 160.084 16.656C160.575 16.656 161.012 16.544 161.396 16.32C161.791 16.096 162.073 15.7653 162.244 15.328L162.58 16.528C162.388 17.0293 162.041 17.4187 161.54 17.696C161.049 17.9733 160.425 18.112 159.668 18.112ZM166.719 18V9.456H168.719V15.088L173.439 9.456H175.263V18H173.263V12.368L168.559 18H166.719ZM170.863 8.448C170.01 8.448 169.354 8.25067 168.895 7.856C168.436 7.45067 168.202 6.864 168.191 6.096H169.519C169.53 6.48 169.647 6.784 169.871 7.008C170.106 7.232 170.431 7.344 170.847 7.344C171.252 7.344 171.572 7.232 171.807 7.008C172.052 6.784 172.18 6.48 172.191 6.096H173.551C173.54 6.864 173.3 7.45067 172.831 7.856C172.372 8.25067 171.716 8.448 170.863 8.448ZM176.705 17.984L176.801 16.304C176.876 16.3147 176.945 16.3253 177.009 16.336C177.073 16.3467 177.132 16.352 177.185 16.352C177.516 16.352 177.772 16.2507 177.953 16.048C178.135 15.8453 178.268 15.5733 178.353 15.232C178.449 14.88 178.513 14.4907 178.545 14.064C178.588 13.6267 178.62 13.1893 178.641 12.752L178.785 9.456H185.697V18H183.697V10.608L184.161 11.152H180.097L180.529 10.592L180.417 12.848C180.385 13.6053 180.321 14.3093 180.225 14.96C180.14 15.6 180.001 16.16 179.809 16.64C179.628 17.12 179.372 17.4933 179.041 17.76C178.721 18.0267 178.311 18.16 177.809 18.16C177.649 18.16 177.473 18.144 177.281 18.112C177.1 18.08 176.908 18.0373 176.705 17.984Z" fill="#5900E6"/>
<defs>
<clipPath id="clip0_502_9879">
<rect width="24" height="24" fill="white"/>
</clipPath>
</defs>
</svg>
