<svg width="165" height="44" viewBox="0 0 165 44" fill="none" xmlns="http://www.w3.org/2000/svg">
<path d="M33.974 7.35251C37.7608 6.12514 41.9805 6.19076 45.6824 7.67672C49.1408 9.07006 51.9926 11.8837 53.4262 15.3227C54.883 18.6806 55.1535 22.4785 54.4888 26.0564C50.8488 26.6276 47.1971 27.1294 43.5648 27.7624C46.4591 24.9448 46.2968 19.6687 43.2711 17.0016C40.9256 14.8904 36.903 15.0255 34.7429 17.3452C31.6014 20.5371 32.2003 26.7781 36.335 28.8546C32.8302 29.3564 29.3331 29.9238 25.8321 30.4525C23.4557 25.709 23.3243 19.9118 25.4728 15.0602C27.0687 11.4553 30.2373 8.60304 33.974 7.35251Z" fill="#242424"/>
<path d="M104.074 10.5059C110.055 4.85146 120.744 5.15252 126.242 11.3434C127.158 12.3353 127.885 13.4855 128.511 14.6781C125.211 15.1992 121.907 15.6932 118.607 16.2066C117.293 16.4845 116.165 15.3845 114.832 15.5311C112.961 15.3497 111.226 16.2297 109.878 17.4532C106.489 18.1981 102.992 18.5339 99.5642 19.1322C100.163 15.8939 101.62 12.7483 104.074 10.5059Z" fill="#242424"/>
<path d="M3.86429 7.22904C10.8198 7.22904 17.7753 7.22904 24.7308 7.22904C24.7308 9.7108 24.7308 12.1887 24.7308 14.6666C20.3527 14.6666 15.9707 14.6666 11.5926 14.6666C11.5926 15.9519 11.5926 17.241 11.5926 18.5262C15.1322 18.5262 18.6679 18.5262 22.2075 18.5262C22.2075 21.008 22.2075 23.4859 22.2075 25.9638C18.6679 25.9599 15.1322 25.9638 11.5926 25.9599C11.5888 28.187 11.5965 30.414 11.5888 32.641C9.01523 33.0308 6.44169 33.4322 3.86429 33.8259C3.86429 24.9603 3.86429 16.0947 3.86429 7.22904Z" fill="#242424"/>
<path d="M55.9261 7.33324C60.2231 7.36411 64.52 7.27148 68.8131 7.38341C71.9818 7.42973 75.39 8.44482 77.4032 11.0308C79.8222 14.1648 80.112 18.5532 79.0609 22.2624C71.3558 23.482 63.6352 24.6361 55.9223 25.8326C55.9339 19.6648 55.9261 13.501 55.9261 7.33324ZM63.9366 20.8382C65.432 20.7957 67.0124 21.0504 68.4229 20.4445C70.4322 19.5761 70.44 16.2606 68.5156 15.2996C67.0781 14.6511 65.4668 14.8827 63.9443 14.8518C63.9327 16.8473 63.9404 18.8427 63.9366 20.8382Z" fill="#242424"/>
<path d="M130.995 7.33322C133.959 7.33322 136.919 7.33322 139.883 7.33322C139.883 9.20129 139.883 11.0694 139.879 12.9413C136.919 13.3929 133.955 13.8483 130.995 14.3038C130.995 11.9802 130.995 9.65673 130.995 7.33322Z" fill="#242424"/>
<path d="M148.975 7.33322C151.932 7.33322 154.884 7.33322 157.84 7.33322C157.84 8.28269 157.836 9.22831 157.836 10.1778C154.88 10.6409 151.924 11.0887 148.972 11.5441C148.979 10.1392 148.975 8.73813 148.975 7.33322Z" fill="#242424"/>
<path d="M76.0739 7.53014C79.4435 7.48769 82.8092 7.63049 86.1788 7.61119C87.6124 10.7645 89.0498 13.9179 90.4525 17.0828C91.7393 13.9256 93.0956 10.7993 94.3515 7.63049C97.6206 7.59576 100.886 7.63049 104.155 7.61119C101.794 11.5326 99.6492 15.6007 97.2032 19.4526C93.1613 20.1551 89.0962 20.7302 85.0388 21.3438C82.0325 16.747 79.1189 12.0961 76.0739 7.53014Z" fill="#242424"/>
<path d="M148.979 18.6227C151.935 18.2599 154.888 17.9087 157.84 17.5459C157.712 21.4442 158.13 25.381 157.546 29.2484C156.943 32.8186 154.876 36.2807 151.595 37.9789C148.071 39.7929 143.851 40.0747 140.038 39.0982C136.66 38.2337 133.677 35.8522 132.298 32.6256C130.512 28.9396 131.084 24.7557 130.995 20.7996C133.959 20.4406 136.919 20.0778 139.883 19.7228C139.937 22.1659 139.763 24.6129 139.995 27.0484C140.13 28.6424 140.884 30.2866 142.352 31.0624C144.076 31.788 146.348 31.5642 147.6 30.0743C148.651 28.8971 148.859 27.2607 148.968 25.7477C148.999 23.374 148.96 20.9964 148.979 18.6227Z" fill="#242424"/>
<path d="M120.96 22.0154C124.005 21.6371 127.054 21.2975 130.095 20.8922C130.516 25.2536 129.287 29.8852 126.378 33.2199C121.215 39.1985 111.338 39.8238 105.132 35.142C101.825 32.6564 99.9003 28.6771 99.4366 24.6206C102.339 24.2694 105.241 23.9336 108.139 23.5592C108.452 25.462 109.352 27.3764 111.002 28.4687C113.363 30.1091 116.922 29.8891 118.916 27.7663C120.477 26.3073 121.088 24.0996 120.96 22.0154Z" fill="#242424"/>
<path d="M86.7663 26.1645C89.3978 25.8364 92.0331 25.5238 94.6685 25.2034C94.7767 29.5378 94.8076 33.876 94.9699 38.2066C92.2341 38.2143 89.4983 38.2104 86.7624 38.2104C86.7663 34.1964 86.7624 30.1785 86.7663 26.1645Z" fill="#242424"/>
<path d="M55.9299 29.9007C62.1164 29.1403 68.3068 28.4031 74.4933 27.6428C76.692 31.1975 78.8521 34.7716 81.0508 38.3224C77.7547 38.2954 74.4624 38.3379 71.1663 38.2993C69.4081 35.3042 67.6306 32.3245 65.8646 29.3333C65.2889 29.3333 64.717 29.3333 64.1451 29.3333C64.1451 32.3245 64.1451 35.3196 64.1451 38.3147C61.4054 38.3109 58.6657 38.3147 55.9299 38.3109C55.926 35.5087 55.926 32.7028 55.9299 29.9007Z" fill="#242424"/>
<path d="M27.7601 33.301C36.2033 32.2898 44.6465 31.2747 53.0858 30.2287C51.5093 33.1852 48.9821 35.667 45.8676 36.9561C39.8511 39.4649 32.1884 38.2684 27.7601 33.301Z" fill="#242424"/>
<path d="M3.86429 36.2074C6.44169 35.8909 9.01523 35.5821 11.5926 35.2695C11.5926 36.2151 11.5926 37.1607 11.5926 38.1102C9.01523 38.1064 6.44169 38.1064 3.86429 38.1102C3.86429 37.4734 3.86429 36.8404 3.86429 36.2074Z" fill="#242424"/>
</svg>
