<svg width="24" height="24" viewBox="0 0 24 24" fill="none" xmlns="http://www.w3.org/2000/svg">
<path d="M19.9155 16.0844C19.2595 16.7404 18.1957 16.7404 17.5397 16.0844L14.6432 13.1878C13.9871 12.5318 13.9871 11.4681 14.6432 10.812L17.5397 7.9155C18.1957 7.25941 19.2595 7.25941 19.9155 7.9155L22.8121 10.812C23.4681 11.4681 23.4681 12.5318 22.8121 13.1878L19.9155 16.0844ZM6.46029 16.0844C5.80421 16.7404 4.74048 16.7404 4.08441 16.0844L1.18792 13.1878C0.531842 12.5318 0.531841 11.4681 1.18792 10.812L4.08441 7.9155C4.74048 7.25941 5.80421 7.25941 6.46029 7.9155L9.35678 10.812C10.0129 11.4681 10.0129 12.5318 9.35678 13.1878L6.46029 16.0844ZM13.188 22.8119C12.5318 23.4681 11.4681 23.4681 10.812 22.8119L7.91555 19.9155C7.25948 19.2594 7.25948 18.1956 7.91555 17.5396L10.812 14.6432C11.4681 13.987 12.5318 13.987 13.188 14.6432L16.0844 17.5396C16.7405 18.1956 16.7405 19.2594 16.0844 19.9155L13.188 22.8119ZM13.188 9.35671C12.5318 10.0128 11.4681 10.0128 10.812 9.35671L7.91555 6.46022C7.25948 5.80415 7.25948 4.74043 7.91555 4.08434L10.812 1.18786C11.4681 0.531781 12.5318 0.53178 13.188 1.18786L16.0844 4.08434C16.7405 4.74043 16.7405 5.80415 16.0844 6.46022L13.188 9.35671Z" fill="#5900E6"/>
</svg>
